<?xml version="1.0" encoding="utf-8"?>
<!-- Designed by Vexels.com - 2016 All Rights Reserved - https://vexels.com/terms-and-conditions/  -->

<svg version="1.0" id="Capa_1" xmlns="http://www.w3.org/2000/svg" xmlns:xlink="http://www.w3.org/1999/xlink" x="0px" y="0px"
	 width="1200px" height="1200px" viewBox="0 0 1200 1200" enable-background="new 0 0 1200 1200" xml:space="preserve">
<g>
	<g>
		<g>
			<g>
				<path d="M465.655,988.118c-67.324-25.304-122.584-74.905-154.048-139.64c-29.687-61.08-35.948-132.379-19.758-198.016
					c17.514-71.006,61.73-132.927,121.844-174.27c74.351-51.134,169.415-72.811,258.131-54.511
					c45.316,9.348,87.81,29.037,124.874,56.635c19.424,14.463,37.028,31.428,52.892,49.693
					c15.068,17.348,29.042,36.16,39.058,56.912c18.712,38.772,23.66,83.461,22.13,126.021
					c-1.642,45.666-11.701,91.182-28.732,133.551c-15.91,39.579-39.246,75.507-71.688,103.446
					c-35.301,30.402-79.169,49.303-124.443,58.963C613.087,1022.44,535.124,1013.96,465.655,988.118
					c-9.712-3.613-13.865,11.89-4.263,15.462c87.868,32.686,190.387,38.138,278.679,4.015
					c43.223-16.704,83.022-43.544,112.285-79.735c27.433-33.929,45.821-74.705,58.04-116.365
					c12.99-44.286,18.898-91.275,15.932-137.375c-2.747-42.702-13.619-85.945-37.899-121.676
					c-54.364-80.002-138.78-137.047-235.321-150.149c-90.338-12.26-185.1,13.419-258.186,67.68
					C335.11,514.383,292.047,578.586,275.17,651.28c-15.858,68.304-8.054,141.091,22.144,204.364
					c31.734,66.491,88.447,117.348,156.384,144.945c2.549,1.036,5.118,2.023,7.694,2.991
					C471.091,1007.225,475.24,991.72,465.655,988.118z"/>
			</g>
		</g>
		<g>
			<g>
				<path d="M432.894,889.795c-28.757-22.725-51.886-51.442-66.994-84.893c-13.92-30.819-19.873-64.978-18.676-98.681
					c2.438-68.639,36.652-134.791,91.114-176.599c65.502-50.283,156.081-63.408,234.581-40.141
					c41.526,12.308,79.172,35.653,109.002,66.995c31.006,32.578,54.667,75.335,64.401,119.363
					c9.688,43.822-2.024,91.186-19.92,131.335c-18.701,41.955-46.51,81.252-82.663,109.919
					c-81.433,64.572-198.722,43.815-281.285-6.793C452.231,904.035,442.335,897.186,432.894,889.795
					c-6.371-4.987-15.428,3.937-8.982,8.982c79.002,61.839,191.76,94.458,287.271,52.524c41.83-18.366,74.62-52.441,99.729-89.885
					c26.28-39.189,44.878-84.716,50.159-131.762c2.411-21.482,1.348-43.539-4.279-64.458c-6.146-22.849-15.742-45.092-27.382-65.657
					c-21.882-38.66-53.447-71.485-91.264-94.778c-73.674-45.378-170.044-51.086-249.717-18.324
					c-67.338,27.69-119.439,83.795-142.072,152.991c-21.657,66.212-13.682,140.642,23.553,199.746
					c14.371,22.811,32.874,42.906,54.002,59.602C430.264,903.798,439.318,894.873,432.894,889.795z"/>
			</g>
		</g>
		<g>
			<g>
				<path d="M588.594,501.88c0,7.413,0,14.827,0,22.24c0,5.326-0.355,11.495,1.704,16.511c1.313,3.2,4.169,5.438,7.813,4.436
					c3.034-0.835,5.753-4.604,4.436-7.813c-1.659-4.042-1.247-8.849-1.25-13.134c-0.005-7.413,0-14.827,0-22.24
					C601.297,493.689,588.594,493.689,588.594,501.88L588.594,501.88z"/>
			</g>
		</g>
		<g>
			<g>
				<path d="M590.07,893.402c0.088,10.981,2.054,23.605,0.227,33.897c-1.421,8.009,10.819,11.433,12.249,3.377
					c2.171-12.232,0.326-24.945,0.227-37.274C602.708,885.214,590.005,885.207,590.07,893.402L590.07,893.402z"/>
			</g>
		</g>
		<g>
			<g>
				<path d="M373.967,706.945c11.405-0.001,22.769-0.132,34.11-1.467c8.034-0.945,8.126-13.659,0-12.703
					c-11.341,1.335-22.705,1.465-34.11,1.467C365.776,694.243,365.775,706.946,373.967,706.945L373.967,706.945z"/>
			</g>
		</g>
		<g>
			<g>
				<path d="M774.398,706.945c13.347,0,26.694,0,40.041,0c8.192,0,8.192-12.703,0-12.703c-13.347,0-26.694,0-40.041,0
					C766.206,694.242,766.206,706.945,774.398,706.945L774.398,706.945z"/>
			</g>
		</g>
		<g>
			<g>
				<path d="M440.458,578.555c6.562,4.165,10.884,11.221,13.407,18.435c0.883,2.525,3.203,4.898,6.125,4.663
					c2.728-0.219,5.013-1.322,7.629-1.704c3.432-0.5,5.267-4.792,4.436-7.813c-1.002-3.644-4.39-4.935-7.813-4.436
					c-1.477,0.215-2.763,1.13-4.252,1.25c2.042,1.554,4.083,3.109,6.125,4.663c-3.652-10.442-9.768-20.011-19.245-26.026
					C439.931,563.183,433.565,574.18,440.458,578.555L440.458,578.555z"/>
			</g>
		</g>
		<g>
			<g>
				<path d="M746.656,560.947c-4.882,6.472-9.94,12.808-14.814,19.286c-2.087,2.774-0.448,7.093,2.279,8.69
					c3.249,1.903,6.613,0.482,8.69-2.279c4.874-6.478,9.932-12.815,14.814-19.286c2.09-2.771,0.445-7.094-2.279-8.69
					C752.095,556.763,748.737,558.189,746.656,560.947L746.656,560.947z"/>
			</g>
		</g>
		<g>
			<g>
				<path d="M740.075,855.039c4.115,1.137,7.242,4.073,9.542,7.45c1.945,2.856,5.547,4.119,8.69,2.279
					c2.831-1.659,4.23-5.824,2.279-8.69c-4.221-6.199-9.765-11.251-17.133-13.288C735.543,840.603,732.19,852.859,740.075,855.039
					L740.075,855.039z"/>
			</g>
		</g>
		<g>
			<g>
				<path d="M476.062,830.074c-8.911,5.941-18.12,11.952-25.028,20.262c-5.195,6.25,3.741,15.288,8.982,8.982
					c6.262-7.533,14.379-12.891,22.457-18.276C489.252,836.523,482.9,825.515,476.062,830.074L476.062,830.074z"/>
			</g>
		</g>
		<g>
			<g>
				<path d="M589.87,698.723c-9.438,4.753-12.39,17.16-9.66,26.705c3.566,12.465,16.743,15.174,27.309,9.818
					c9.862-4.999,13.545-17.205,9.046-27.016c-5.377-11.724-18.973-14.273-30.393-11.193c-7.901,2.131-4.544,14.385,3.377,12.249
					c5.108-1.378,11.622-1.682,14.933,3.236c2.278,3.383,1.962,8.029-1.725,10.743c-11.07,8.149-14.758-9.402-6.476-13.573
					C603.599,706.006,597.166,695.049,589.87,698.723L589.87,698.723z"/>
			</g>
		</g>
		<g>
			<g>
				<g>
					<path d="M596.177,732.091c-23.101,14.831-45.647,30.959-66.024,49.399c-6.641,6.009-13.26,11.754-20.319,17.285
						c-3.305,2.59-6.616,5.174-9.837,7.869c-2.086,1.746-4.898,3.901-5.491,6.722c-1.679,7.992,10.566,11.392,12.249,3.377
						c-0.326,1.554-1.725,2.476,0.017,0.819c1.138-1.081,2.364-2.074,3.573-3.073c3.081-2.545,6.247-4.991,9.392-7.456
						c6.748-5.287,13.079-10.778,19.396-16.562c19.462-17.82,41.283-33.179,63.453-47.412
						C609.456,738.65,603.093,727.651,596.177,732.091L596.177,732.091z"/>
				</g>
			</g>
			<g>
				<g>
					<path d="M501.266,814.187c13.12-16.634,25.359-33.974,39.263-49.98c7.488-8.62,14.776-17.364,23.018-25.289
						c8.093-7.782,16.631-15.089,24.78-22.812c5.956-5.645-3.042-14.613-8.982-8.982c-8.149,7.724-16.64,15.079-24.78,22.812
						c-8.284,7.87-15.535,16.678-23.018,25.289c-13.907,16.006-26.142,33.346-39.263,49.98
						C487.271,811.561,496.195,820.616,501.266,814.187L501.266,814.187z"/>
				</g>
			</g>
		</g>
		<g>
			<g>
				<g>
					<path d="M587.691,505.271c1.831,15.992,0.333,32.333-0.677,48.334c-1.185,18.78-1.437,37.557-1.781,56.369
						c-0.394,21.508-0.849,43.016-1.804,64.507c-0.475,10.681-0.832,21.436-2.198,32.044c-0.903,7.01-0.309,13.242,1.651,20.037
						c2.267,7.855,14.525,4.511,12.249-3.377c-1.839-6.372-1.849-11.603-1.004-18.167c1.382-10.731,1.61-21.676,2.091-32.481
						c0.956-21.494,1.36-43.009,1.754-64.519c0.333-18.16,0.602-36.281,1.745-54.411c1.009-16.001,2.508-32.341,0.677-48.334
						C599.473,497.23,586.76,497.14,587.691,505.271L587.691,505.271z"/>
				</g>
			</g>
			<g>
				<g>
					<path d="M598.107,504.759c5.495,15.511,3.636,33.291,4.16,49.506c0.275,8.496,0.85,16.972,1.868,25.412
						c1.029,8.535,2.607,16.886,2.992,25.495c0.383,8.565,0.052,17.157-0.205,25.721c-0.246,8.19-0.011,16.4-0.324,24.58
						c-0.607,15.902-5.259,31.184-2.525,47.158c1.38,8.062,13.62,4.633,12.249-3.377c-2.663-15.554,2.816-31.483,3.068-47.059
						c0.271-16.816,1.199-33.835,0.257-50.635c-0.483-8.609-2.285-17.049-3.243-25.605c-0.94-8.395-1.299-16.847-1.546-25.286
						c-0.475-16.251,1.01-33.725-4.503-49.287C607.64,493.717,595.364,497.017,598.107,504.759L598.107,504.759z"/>
				</g>
			</g>
		</g>
		<g>
			<g>
				<path d="M530.791,774.608c5.397,1.014,10.781,1.194,16.259,1.196c2.845,0.001,2.845-4.41,0-4.411
					c-5.076-0.002-10.082-0.098-15.086-1.039C529.184,769.832,527.997,774.083,530.791,774.608L530.791,774.608z"/>
			</g>
		</g>
		<g>
			<g>
				<path d="M536.986,763.496c7.796,0.08,15.376,1.21,22.887,3.285c2.747,0.759,3.911-3.497,1.173-4.253
					c-7.882-2.177-15.88-3.359-24.06-3.443C534.141,759.056,534.143,763.467,536.986,763.496L536.986,763.496z"/>
			</g>
		</g>
		<g>
			<g>
				<path d="M552.623,750.086c9.747,1.148,19.333,3.324,29.083,4.464c2.822,0.33,2.79-4.085,0-4.411
					c-9.748-1.14-19.334-3.315-29.083-4.464C549.801,745.342,549.833,749.757,552.623,750.086L552.623,750.086z"/>
			</g>
		</g>
		<g>
			<g>
				<path d="M562.101,732.116c10.907,2.287,21.273,6.254,30.792,12.069c2.434,1.487,4.649-2.329,2.226-3.809
					c-9.82-6-20.59-10.153-31.846-12.514C560.499,727.28,559.318,731.532,562.101,732.116L562.101,732.116z"/>
			</g>
		</g>
		<g>
			<g>
				<path d="M600.711,540.633c3.361-2.074,7.378-1.942,11.196-1.944c2.844-0.002,2.845-4.413,0-4.411
					c-4.612,0.003-9.375,0.049-13.422,2.546C596.07,538.315,598.283,542.131,600.711,540.633L600.711,540.633z"/>
			</g>
		</g>
		<g>
			<g>
				<path d="M597.37,554.352c7.087-0.084,13.969-1.259,20.715-3.424c2.697-0.866,1.544-5.125-1.173-4.254
					c-6.382,2.048-12.833,3.187-19.542,3.267C594.527,549.975,594.524,554.386,597.37,554.352L597.37,554.352z"/>
			</g>
		</g>
		<g>
			<g>
				<path d="M599.075,568.819c5.186-1.278,10.428-2.31,15.664-3.364c2.787-0.561,1.605-4.813-1.173-4.254
					c-5.235,1.054-10.477,2.086-15.663,3.364C595.141,565.246,596.313,569.5,599.075,568.819L599.075,568.819z"/>
			</g>
		</g>
		<g>
			<g>
				<path d="M594.593,587.829c5.716-1.068,11.521-1.038,17.314-1.04c2.845-0.001,2.845-4.412,0-4.411
					c-6.202,0.002-12.371,0.054-18.487,1.197C590.626,584.098,591.813,588.349,594.593,587.829L594.593,587.829z"/>
			</g>
		</g>
		<g>
			<g>
				<path d="M594.593,604.612c6.852-1.128,13.724-2.087,20.678-2.167c2.843-0.033,2.846-4.444,0-4.411
					c-7.344,0.085-14.616,1.134-21.851,2.325C590.618,600.82,591.811,605.07,594.593,604.612L594.593,604.612z"/>
			</g>
		</g>
		<g>
			<g>
				<path d="M589.002,620.266c5.192-0.981,10.48-1.257,15.673-2.245c2.792-0.531,1.607-4.782-1.173-4.253
					c-5.191,0.988-10.479,1.264-15.673,2.245C585.036,616.54,586.222,620.791,589.002,620.266L589.002,620.266z"/>
			</g>
		</g>
		<g>
			<g>
				<path d="M588.416,634.882c8.579,0,17.158,0,25.736,0c2.845,0,2.845-4.411,0-4.411c-8.579,0-17.158,0-25.736,0
					C585.571,630.471,585.571,634.882,588.416,634.882L588.416,634.882z"/>
			</g>
		</g>
		<g>
			<g>
				<path d="M589.002,651.586c5.357-1,10.764-1.047,16.196-1.049c2.845-0.001,2.845-4.412,0-4.411
					c-5.835,0.002-11.617,0.133-17.368,1.206C585.035,647.854,586.222,652.105,589.002,651.586L589.002,651.586z"/>
			</g>
		</g>
		<g>
			<g>
				<path d="M591.779,666.192c7.458,0,14.916,0,22.374,0c2.845,0,2.845-4.411,0-4.411c-7.458,0-14.916,0-22.374,0
					C588.934,661.781,588.934,666.192,591.779,666.192L591.779,666.192z"/>
			</g>
		</g>
		<g>
			<g>
				<path d="M586.188,685.202c9.058-0.9,17.89,0.958,26.251,4.412c2.629,1.086,3.763-3.184,1.173-4.254
					c-8.683-3.586-18.022-5.503-27.424-4.569C583.385,681.07,583.357,685.483,586.188,685.202L586.188,685.202z"/>
			</g>
		</g>
		<g>
			<g>
				<g>
					<path d="M360.154,472.784c13.154-21.027,34.17-36.191,55.325-48.408c23.344-13.481,48.713-23.548,74.75-30.442
						c9.987-2.644,5.745-18.112-4.263-15.462c-27.365,7.245-53.983,18.04-78.581,32.058c-23.588,13.444-46.504,30.864-61.078,54.16
						C340.807,473.484,354.685,481.526,360.154,472.784L360.154,472.784z"/>
				</g>
			</g>
			<g>
				<g>
					<path d="M350.218,463.197c-7.443-25.254-20.577-48.469-26.363-74.274c-5.378-23.987,0.385-47.046,16.332-65.71
						c22.646-26.505,58.251-32.55,90.407-23.378c37.505,10.697,70.088,42.592,74.373,82.423c0.598,5.559,4.634,8.61,10.149,7.731
						c0.53-0.084,1.062-0.16,1.59-0.255c4.305-0.776,6.678-5.941,5.6-9.862c-1.26-4.581-5.545-6.255-9.862-5.6
						c-12.154,1.845-24.285,3.848-36.426,5.775c-4.322,0.686-6.66,6.008-5.6,9.862c1.254,4.56,5.55,6.284,9.862,5.6
						c12.141-1.927,24.272-3.93,36.426-5.775c-1.421-5.154-2.842-10.308-4.263-15.462c-0.528,0.095-1.061,0.17-1.59,0.255
						c3.383,2.577,6.766,5.154,10.149,7.731c-4.033-37.493-27.4-69.062-60.11-87.115c-31.351-17.304-70.146-21.171-102.929-5.648
						c-26.83,12.704-47.904,40.62-51.605,70.109c-4.843,38.593,17.917,72.294,28.398,107.856
						C337.673,477.356,353.149,473.14,350.218,463.197L350.218,463.197z"/>
				</g>
			</g>
			<g>
				<g>
					<path d="M339.158,299.676c-1.278-2.426-2.622-4.815-3.937-7.221c-0.601-1.099-1.163-2.215-1.692-3.35
						c0.672,1.441-0.489-2.729-0.174-0.222c-0.244-1.937-0.515,1.468-0.006-0.377c-0.434,1.575-0.729,1.155,0.527-0.003
						c1.865-1.719,5.796-3.179,8.42-4.32c-3.656-0.959-7.313-1.918-10.969-2.876c3.021,4.024,6.101,7.401,10.327,10.185
						c3.119,2.054,6.738,3.153,9.841,5.27c8.568,5.846,16.578-8.056,8.093-13.846c-4.988-3.403-10.629-4.657-14.416-9.702
						c-2.871-3.825-6.584-4.783-10.969-2.876c-7.556,3.285-16.336,7.984-16.87,17.267c-0.417,7.255,4.764,14.055,7.982,20.164
						C330.133,316.921,343.973,308.816,339.158,299.676L339.158,299.676z"/>
				</g>
			</g>
			<g>
				<g>
					<path d="M321.526,364.773c13.231-22.484,40.178-31.795,62.196-43.151c2.529-1.304,0.297-5.11-2.226-3.809
						c-22.804,11.761-50.079,21.453-63.779,44.733C316.271,365.004,320.085,367.222,321.526,364.773L321.526,364.773z"/>
				</g>
			</g>
			<g>
				<g>
					<path d="M322.612,349.009c15.602-14.296,33.1-26.64,53.811-32.084c2.749-0.723,1.581-4.978-1.173-4.254
						c-21.435,5.635-39.608,18.421-55.757,33.219C317.392,347.816,320.52,350.927,322.612,349.009L322.612,349.009z"/>
				</g>
			</g>
			<g>
				<g>
					<path d="M326.158,379.525c2.656-12.177,13.45-19.491,23.792-25.013c11.106-5.93,23.11-9.915,34.585-15.034
						c2.594-1.157,0.348-4.957-2.226-3.809c-12.275,5.476-25.042,9.776-36.856,16.264c-10.544,5.79-20.865,14.118-23.549,26.419
						C321.3,381.125,325.552,382.304,326.158,379.525L326.158,379.525z"/>
				</g>
			</g>
			<g>
				<g>
					<path d="M322.828,400.904c16.888-20.588,38.642-37.408,63.338-47.544c2.594-1.065,1.46-5.334-1.173-4.254
						c-25.413,10.431-47.881,27.462-65.284,48.678C317.92,399.965,321.022,403.105,322.828,400.904L322.828,400.904z"/>
				</g>
			</g>
			<g>
				<g>
					<path d="M324.983,414.555c17.277-20.974,40.669-35.644,63.561-49.734c2.417-1.488,0.203-5.304-2.226-3.809
						c-23.181,14.268-46.957,29.183-64.453,50.423C320.071,413.613,323.173,416.753,324.983,414.555L324.983,414.555z"/>
				</g>
			</g>
			<g>
				<g>
					<path d="M331.081,425.184c6.915-14.507,19.983-25.222,33.201-33.802c13.65-8.86,28.93-15.898,44.785-19.691
						c2.766-0.662,1.593-4.915-1.173-4.254c-16.263,3.89-31.767,11.193-45.838,20.135c-13.847,8.8-27.598,20.309-34.784,35.385
						C326.055,425.511,329.857,427.751,331.081,425.184L331.081,425.184z"/>
				</g>
			</g>
			<g>
				<g>
					<path d="M333.559,440.785c7.988-17.608,24.254-30.673,39.618-41.654c15.808-11.298,32.831-20.856,50.05-29.81
						c2.525-1.313,0.294-5.119-2.226-3.809c-17.678,9.192-35.031,19.076-51.258,30.672c-15.552,11.115-31.919,24.575-39.993,42.374
						C328.584,441.128,332.385,443.372,333.559,440.785L333.559,440.785z"/>
				</g>
			</g>
			<g>
				<g>
					<path d="M342.888,449.301c17.551-26.311,44.733-45.865,71.115-62.545c2.397-1.515,0.186-5.334-2.226-3.809
						c-27.048,17.101-54.712,37.166-72.697,64.128C337.496,449.449,341.319,451.655,342.888,449.301L342.888,449.301z"/>
				</g>
			</g>
			<g>
				<g>
					<path d="M345.416,455.276c18.758-18.63,40.166-34.102,61.628-49.42c2.294-1.637,0.094-5.465-2.226-3.809
						c-21.762,15.533-43.5,31.219-62.521,50.11C340.276,454.163,343.396,457.282,345.416,455.276L345.416,455.276z"/>
				</g>
			</g>
		</g>
		<g>
			<g>
				<g>
					<path d="M665.948,383.065c25.393-3.124,50.82,3.584,74.381,12.596c25.119,9.608,48.97,23.219,70.672,39.046
						c3.539,2.581,8.929,0.608,10.969-2.876c2.378-4.059,0.647-8.4-2.876-10.969c-22.941-16.73-48.05-30.361-74.502-40.662
						c-24.587-9.574-52.121-16.431-78.644-13.169c-4.336,0.533-8.017,3.243-8.017,8.017
						C657.931,379.013,661.6,383.6,665.948,383.065L665.948,383.065z"/>
				</g>
			</g>
			<g>
				<g>
					<path d="M668.747,368.601c21.367-30.95,33.908-76.812,72.623-90.937c33.69-12.292,69.531,0.774,91.133,27.879
						c30.13,37.805,30.428,98.349-4.401,133.407c3.779,0,7.559,0,11.338,0c-8.743-7.857-17.484-15.717-26.22-23.582
						c-7.661-6.897-19.038,4.406-11.338,11.338c8.736,7.865,17.477,15.725,26.22,23.582c3.239,2.911,8.137,3.222,11.338,0
						c50.886-51.221,37.193-148.849-27.459-182.612c-29.609-15.462-69.131-14.339-96.228,5.902
						c-29.346,21.921-40.736,57.792-60.851,86.929C649.009,369.042,662.915,377.048,668.747,368.601L668.747,368.601z"/>
				</g>
			</g>
			<g>
				<g>
					<path d="M787.797,258.827c1.216-2.836,2.384-5.69,3.541-8.551c0.369-0.913,0.625-1.452,1.122-2.472
						c0.162-0.333,1.863-2.864,0.798-1.567c1.253-1.525-1.246,0.598,0.381-0.335c-0.445,0.328-0.943,0.476-1.493,0.444
						c0.906,0.047,0.996,0.01,0.27-0.112c3.11,0.45,5.993,2.044,8.736,3.465c-1.228-3.018-2.456-6.036-3.684-9.054
						c-1.081,4.322-1.749,8.725-1.164,13.167c0.456,3.467,1.742,6.895,2.023,10.317c0.842,10.23,16.883,10.312,16.035,0
						c-0.562-6.83-3.144-12.371-1.431-19.222c0.84-3.36-0.463-7.385-3.685-9.054c-7.355-3.81-16.249-8.072-24.244-3.485
						c-6.388,3.665-8.367,12.108-11.049,18.366c-1.722,4.017-1.238,8.56,2.876,10.969
						C780.243,263.704,786.074,262.847,787.797,258.827L787.797,258.827z"/>
				</g>
			</g>
			<g>
				<g>
					<path d="M726.972,284.881c25.562-3.782,49.641,11.154,72.121,20.997c2.579,1.129,4.827-2.67,2.226-3.809
						c-23.796-10.42-48.508-25.438-75.52-21.442C722.994,281.042,724.191,285.292,726.972,284.881L726.972,284.881z"/>
				</g>
			</g>
			<g>
				<g>
					<path d="M739.308,275.765c21.122,3.152,41.882,8.986,59.32,21.757c2.299,1.684,4.496-2.147,2.226-3.809
						c-17.714-12.972-38.911-18.999-60.374-22.202C737.699,271.096,736.502,275.346,739.308,275.765L739.308,275.765z"/>
				</g>
			</g>
			<g>
				<g>
					<path d="M718.428,297.719c11.387-5.711,24.46-1.441,35.382,3.335c11.018,4.818,21.217,11.277,31.919,16.722
						c2.529,1.287,4.762-2.518,2.226-3.809c-12.212-6.214-23.824-13.503-36.552-18.678c-11.213-4.559-23.941-7.026-35.201-1.379
						C713.658,295.186,715.893,298.991,718.428,297.719L718.428,297.719z"/>
				</g>
			</g>
			<g>
				<g>
					<path d="M699.71,308.737c26.652,0.138,53.333,6.531,76.777,19.309c2.498,1.362,4.724-2.447,2.226-3.809
						c-24.123-13.147-51.575-19.768-79.004-19.911C696.865,304.311,696.866,308.722,699.71,308.737L699.71,308.737z"/>
				</g>
			</g>
			<g>
				<g>
					<path d="M690.469,318.999c27.152,0.212,53.29,9.189,78.637,18.072c2.692,0.943,3.839-3.319,1.173-4.254
						c-25.731-9.018-52.249-18.014-79.81-18.229C687.623,314.565,687.625,318.977,690.469,318.999L690.469,318.999z"/>
				</g>
			</g>
			<g>
				<g>
					<path d="M686.072,330.371c15.596-3.76,32.158-0.248,47.114,4.598c15.462,5.009,30.552,12.503,43.472,22.411
						c2.258,1.731,4.451-2.103,2.226-3.809c-13.279-10.182-28.707-17.557-44.526-22.855c-15.603-5.226-33.19-8.52-49.459-4.598
						C682.135,326.784,683.307,331.037,686.072,330.371L686.072,330.371z"/>
				</g>
			</g>
			<g>
				<g>
					<path d="M675.507,342.107c18.464-4.813,38.569-0.445,56.55,4.448c18.804,5.117,37.027,12.306,54.888,20.046
						c2.582,1.119,4.83-2.68,2.226-3.809c-18.235-7.902-36.777-15.158-55.941-20.491c-18.674-5.196-39.725-9.445-58.896-4.448
						C671.584,338.57,672.752,342.825,675.507,342.107L675.507,342.107z"/>
				</g>
			</g>
			<g>
				<g>
					<path d="M674.196,354.791c31.707-2.946,64.112,5.815,93.899,15.871c2.703,0.913,3.853-3.349,1.173-4.254
						c-30.112-10.166-63.014-19.007-95.072-16.029C671.389,350.64,671.363,355.054,674.196,354.791L674.196,354.791z"/>
				</g>
			</g>
			<g>
				<g>
					<path d="M671.718,360.533c26.265,2.83,51.769,9.756,77.17,16.748c2.747,0.756,3.912-3.5,1.173-4.254
						c-25.799-7.101-51.671-14.032-78.343-16.906C668.892,355.818,668.921,360.232,671.718,360.533L671.718,360.533z"/>
				</g>
			</g>
		</g>
		<g>
			<g>
				<path d="M375.145,500.193c13.348,11.148,27.205,23.568,44.387,28.183c2.751,0.739,3.917-3.516,1.173-4.253
					c-16.419-4.41-29.69-16.4-42.441-27.049C376.097,495.264,372.959,498.367,375.145,500.193L375.145,500.193z"/>
			</g>
		</g>
		<g>
			<g>
				<path d="M397.303,492.638c12.427,8.744,17.086,24.747,29.593,33.538c2.333,1.64,4.534-2.187,2.226-3.809
					c-12.431-8.739-17.091-24.742-29.593-33.538C397.196,487.188,394.996,491.015,397.303,492.638L397.303,492.638z"/>
			</g>
		</g>
		<g>
			<g>
				<path d="M406.379,476.058c8.525,18.568,24.243,32.148,40.251,44.214c2.274,1.714,4.468-2.119,2.226-3.809
					c-15.423-11.624-30.461-24.755-38.668-42.631C409.002,471.249,405.201,473.492,406.379,476.058L406.379,476.058z"/>
			</g>
		</g>
		<g>
			<g>
				<path d="M427.859,461.719c6.474,16.987,15.73,33.759,30.625,44.731c2.294,1.69,4.49-2.141,2.226-3.809
					c-13.867-10.216-22.579-26.303-28.598-42.095C431.11,457.916,426.844,459.056,427.859,461.719L427.859,461.719z"/>
			</g>
		</g>
		<g>
			<g>
				<path d="M445.616,447.916c4.343,20.356,16.622,37.499,25.879,55.776c1.286,2.538,5.091,0.305,3.809-2.226
					c-9.088-17.943-21.171-34.738-25.434-54.722C449.276,443.962,445.024,445.142,445.616,447.916L445.616,447.916z"/>
			</g>
		</g>
		<g>
			<g>
				<path d="M463.941,444.935c13.719,14.306,14.231,36.786,25.312,52.835c1.604,2.324,5.43,0.121,3.809-2.226
					c-11.328-16.406-11.906-39.028-26.002-53.727C465.088,439.759,461.973,442.883,463.941,444.935L463.941,444.935z"/>
			</g>
		</g>
		<g>
			<g>
				<path d="M485.094,428.173c3.877,19.594,6.378,46.493,24.692,58.553c2.383,1.57,4.591-2.252,2.226-3.809
					c-8.546-5.628-12.707-15.534-15.698-24.931c-3.213-10.094-4.916-20.617-6.967-30.986
					C488.796,424.211,484.544,425.395,485.094,428.173L485.094,428.173z"/>
			</g>
		</g>
		<g>
			<g>
				<path d="M506.796,418.314c8.488,21.568,11.979,46.584,25.879,65.643c1.658,2.273,5.488,0.076,3.809-2.226
					c-13.671-18.746-17.082-43.366-25.434-64.589C510.02,414.526,505.753,415.664,506.796,418.314L506.796,418.314z"/>
			</g>
		</g>
		<g>
			<g>
				<path d="M530.689,408.974c11.528,19.756,11.305,43.108,17.545,64.58c0.792,2.726,5.049,1.565,4.254-1.173
					c-6.357-21.879-6.238-45.495-17.989-65.634C533.066,404.293,529.253,406.512,530.689,408.974L530.689,408.974z"/>
			</g>
		</g>
		<g>
			<g>
				<path d="M552.169,416.337c6.203,18.888,9.682,38.713,9.798,58.608c0.017,2.844,4.428,2.845,4.411,0
					c-0.118-20.262-3.637-40.543-9.956-59.78C555.539,412.475,551.279,413.627,552.169,416.337L552.169,416.337z"/>
			</g>
		</g>
		<g>
			<g>
				<path d="M581.701,407.861c0,21.049,0,42.098,0,63.148c0,2.845,4.411,2.845,4.411,0c0-21.049,0-42.098,0-63.148
					C586.112,405.017,581.701,405.017,581.701,407.861L581.701,407.861z"/>
			</g>
		</g>
		<g>
			<g>
				<path d="M607.437,411.21c-5.872,23.518-11.76,47.251-11.923,71.634c-0.019,2.845,4.392,2.844,4.411,0
					c0.161-23.996,5.987-47.319,11.766-70.461C612.38,409.622,608.126,408.451,607.437,411.21L607.437,411.21z"/>
			</g>
		</g>
		<g>
			<g>
				<path d="M629.148,416.337c4.196,17.788,1.936,36.585,1.88,54.671c-0.009,2.845,4.402,2.844,4.411,0
					c0.058-18.514,2.259-37.631-2.037-55.844C632.749,412.397,628.496,413.571,629.148,416.337L629.148,416.337z"/>
			</g>
		</g>
		<g>
			<g>
				<path d="M651.15,477.508c6.056-21.714,15.935-42.04,23.697-63.148c0.984-2.676-3.28-3.819-4.254-1.173
					c-7.762,21.107-17.641,41.434-23.697,63.148C646.131,479.081,650.387,480.244,651.15,477.508L651.15,477.508z"/>
			</g>
		</g>
		<g>
			<g>
				<path d="M666.717,483.957c9.961-18.29,14.345-39.48,29.248-54.811c1.983-2.04-1.134-5.162-3.119-3.119
					c-15.234,15.671-19.763,37.022-29.938,55.704C661.547,484.23,665.356,486.456,666.717,483.957L666.717,483.957z"/>
			</g>
		</g>
		<g>
			<g>
				<path d="M686.682,493.298c6.024-19.381,18.208-36.075,29.37-52.755c1.587-2.372-2.236-4.577-3.809-2.226
					c-11.388,17.019-23.669,34.036-29.814,53.809C681.582,494.849,685.841,496.005,686.682,493.298L686.682,493.298z"/>
			</g>
		</g>
		<g>
			<g>
				<path d="M714.075,497.769c9.651-15.531,17.99-31.827,27.624-47.368c1.503-2.425-2.314-4.638-3.809-2.226
					c-9.634,15.541-17.973,31.837-27.624,47.368C708.761,497.967,712.578,500.179,714.075,497.769L714.075,497.769z"/>
			</g>
		</g>
		<g>
			<g>
				<path d="M734.041,505.133c8.86-21.364,27.945-37.301,44.806-52.308c2.129-1.895-1.002-5.003-3.119-3.119
					c-17.548,15.619-36.73,32.046-45.94,54.254C728.698,506.587,732.968,507.721,734.041,505.133L734.041,505.133z"/>
			</g>
		</g>
		<g>
			<g>
				<path d="M759.131,513.997c11.344-13.412,19.97-29.381,35.06-39.124c2.38-1.537,0.171-5.357-2.226-3.809
					c-15.495,10.005-24.31,26.048-35.952,39.814C754.187,513.035,757.291,516.171,759.131,513.997L759.131,513.997z"/>
			</g>
		</g>
		<g>
			<g>
				<path d="M773.279,537.238c13.389-21.654,38.098-34.389,58.403-48.553c2.315-1.615,0.113-5.441-2.226-3.809
					c-20.953,14.617-46.165,27.785-59.985,50.136C767.969,537.439,771.786,539.652,773.279,537.238L773.279,537.238z"/>
			</g>
		</g>
		<g>
			<g>
				<path d="M793.235,548.556c4.898-12.623,19.958-19.312,31.589-24.135c13.018-5.398,26.651-9.033,39.895-13.793
					c2.656-0.955,1.511-5.218-1.173-4.254c-14.251,5.122-28.854,9.104-42.822,15.021c-12.405,5.256-26.585,12.696-31.743,25.988
					C787.951,550.039,792.218,551.178,793.235,548.556L793.235,548.556z"/>
			</g>
		</g>
		<g>
			<g>
				<path d="M802.544,569.254c15.703-17.504,39.828-25.721,60.707-35.17c2.588-1.171,0.344-4.972-2.226-3.809
					c-21.259,9.622-45.606,18.032-61.6,35.86C797.531,568.246,800.641,571.376,802.544,569.254L802.544,569.254z"/>
			</g>
		</g>
		<g>
			<g>
				<path d="M818.325,588.998c17.372-18.877,47.287-18.971,70.065-27.066c2.661-0.945,1.515-5.208-1.173-4.254
					c-23.609,8.39-53.973,8.599-72.012,28.201C813.283,587.968,816.395,591.095,818.325,588.998L818.325,588.998z"/>
			</g>
		</g>
		<g>
			<g>
				<path d="M827.728,605.114c21.385-11.43,45.266-15.695,68.561-21.481c2.76-0.685,1.589-4.939-1.173-4.254
					c-23.686,5.883-47.875,10.305-69.615,21.925C822.992,602.647,825.22,606.455,827.728,605.114L827.728,605.114z"/>
			</g>
		</g>
		<g>
			<g>
				<path d="M835.109,621.126c21.555-5.873,43.132-11.727,65.116-15.789c2.795-0.516,1.607-4.767-1.173-4.254
					c-21.984,4.062-43.562,9.916-65.116,15.789C831.195,617.619,832.36,621.875,835.109,621.126L835.109,621.126z"/>
			</g>
		</g>
		<g>
			<g>
				<path d="M841.022,638.891c24.039-3.993,48.146-7.721,72.438-9.797c2.812-0.24,2.836-4.653,0-4.411
					c-24.682,2.109-49.185,5.897-73.611,9.955C837.048,635.103,838.241,639.354,841.022,638.891L841.022,638.891z"/>
			</g>
		</g>
		<g>
			<g>
				<path d="M838.476,662.65c21.702,0,43.405,0,65.107,0c2.845,0,2.845-4.411,0-4.411c-21.702,0-43.405,0-65.107,0
					C835.632,658.239,835.632,662.65,838.476,662.65L838.476,662.65z"/>
			</g>
		</g>
		<g>
			<g>
				<path d="M842.422,690.274c24.138-0.05,48.479-1.939,72.438,1.898c2.782,0.445,3.976-3.805,1.173-4.254
					c-24.381-3.905-49.047-2.106-73.611-2.056C839.578,685.869,839.577,690.28,842.422,690.274L842.422,690.274z"/>
			</g>
		</g>
		<g>
			<g>
				<path d="M845.245,715.63c2.506,1.064,5.424,1.122,8.104,1.339c5.712,0.461,11.45,0.647,17.174,0.875
					c12.333,0.491,24.734,0.705,37.015,2.024c2.827,0.304,2.797-4.111,0-4.411c-11.447-1.229-23.003-1.48-34.499-1.925
					c-5.357-0.208-10.715-0.417-16.067-0.728c-2.821-0.164-6.93,0.109-9.501-0.982C844.884,710.723,842.634,714.522,845.245,715.63
					L845.245,715.63z"/>
			</g>
		</g>
		<g>
			<g>
				<path d="M854.257,753.423c11.844,0,23.688,0,35.533,0c2.845,0,2.845-4.411,0-4.411c-11.844,0-23.688,0-35.533,0
					C851.413,749.012,851.413,753.423,854.257,753.423L854.257,753.423z"/>
			</g>
		</g>
		<g>
			<g>
				<path d="M838.476,777.102c22.315,1.977,44.719,1.977,67.102,1.978c2.845,0,2.845-4.411,0-4.411c-22.384,0-44.788,0-67.102-1.978
					C835.642,772.44,835.666,776.853,838.476,777.102L838.476,777.102z"/>
			</g>
		</g>
		<g>
			<g>
				<path d="M843.803,798.726c24.322,6.061,50.408,11.835,68.098,31.011c1.933,2.095,5.044-1.032,3.119-3.119
					c-18.22-19.75-44.975-25.898-70.044-32.145C842.215,793.785,841.044,798.039,843.803,798.726L843.803,798.726z"/>
			</g>
		</g>
		<g>
			<g>
				<path d="M840.436,818.548c19.715,2.335,34.702,17.351,52.168,25.346c2.567,1.175,4.81-2.626,2.226-3.809
					c-18.359-8.404-33.645-23.491-54.394-25.949C837.615,813.803,837.647,818.218,840.436,818.548L840.436,818.548z"/>
			</g>
		</g>
		<g>
			<g>
				<path d="M365.724,520.272c5.705,2.688,11.357,5.492,16.978,8.352c8.783,4.469,18.183,8.884,25.989,14.974
					c2.215,1.727,5.36-1.371,3.119-3.119c-12.969-10.116-29.044-17.036-43.86-24.016
					C365.393,515.258,363.153,519.06,365.724,520.272L365.724,520.272z"/>
			</g>
		</g>
		<g>
			<g>
				<path d="M349.089,536.354c15.008,0.215,28.695,5.717,42.292,11.543c2.584,1.108,4.834-2.691,2.226-3.809
					c-14.326-6.139-28.707-11.919-44.518-12.146C346.243,531.902,346.247,536.313,349.089,536.354L349.089,536.354z"/>
			</g>
		</g>
		<g>
			<g>
				<path d="M327.378,558.056c17.919,2.138,35.147,7.798,52.695,11.766c2.77,0.626,3.947-3.626,1.173-4.253
					c-17.951-4.058-35.535-9.736-53.867-11.923C324.557,553.308,324.59,557.723,327.378,558.056L327.378,558.056z"/>
			</g>
		</g>
		<g>
			<g>
				<path d="M307.057,591.524c14.442,2.155,28.139,6.457,40.919,13.591c2.486,1.388,4.71-2.423,2.226-3.809
					c-13.096-7.31-27.158-11.825-41.973-14.035C305.448,586.855,304.252,591.105,307.057,591.524L307.057,591.524z"/>
			</g>
		</g>
		<g>
			<g>
				<path d="M293.831,619.245c25.85,0.09,51.774,3.674,76.374,11.747c2.711,0.89,3.863-3.371,1.173-4.254
					c-24.944-8.186-51.334-11.814-77.546-11.905C290.986,614.824,290.987,619.235,293.831,619.245L293.831,619.245z"/>
			</g>
		</g>
		<g>
			<g>
				<path d="M325.392,579.776c19.526,0.241,37.74,7.852,56.648,11.747c2.776,0.572,3.958-3.68,1.173-4.253
					c-19.31-3.978-37.876-11.659-57.821-11.905C322.546,575.33,322.55,579.741,325.392,579.776L325.392,579.776z"/>
			</g>
		</g>
		<g>
			<g>
				<path d="M287.9,644.883c15.447-0.06,32.139-2.048,46.246,5.621c2.5,1.359,4.726-2.45,2.226-3.809
					c-14.897-8.098-32.142-6.287-48.472-6.223C285.056,640.483,285.055,644.894,287.9,644.883L287.9,644.883z"/>
			</g>
		</g>
		<g>
			<g>
				<path d="M283.955,668.563c21.279-1.696,41.893,3.633,62.571,7.82c2.777,0.562,3.96-3.689,1.173-4.254
					c-21.047-4.262-42.087-9.704-63.744-7.978C281.139,664.377,281.117,668.789,283.955,668.563L283.955,668.563z"/>
			</g>
		</g>
		<g>
			<g>
				<path d="M280.018,692.251c21.705,0,43.411,0,65.116,0c2.845,0,2.845-4.411,0-4.411c-21.705,0-43.411,0-65.116,0
					C277.174,687.84,277.174,692.251,280.018,692.251L280.018,692.251z"/>
			</g>
		</g>
		<g>
			<g>
				<path d="M274.088,717.891c22.381-0.055,44.712-1.904,67.093-1.959c2.844-0.007,2.845-4.418,0-4.411
					c-22.381,0.055-44.712,1.905-67.093,1.959C271.244,713.486,271.243,717.897,274.088,717.891L274.088,717.891z"/>
			</g>
		</g>
		<g>
			<g>
				<path d="M329.932,741.192c-21.179-4.09-43.511-4.058-64.32,1.977c-2.727,0.791-1.566,5.048,1.173,4.253
					c20.03-5.809,41.579-5.915,61.975-1.977C331.538,745.982,332.723,741.731,329.932,741.192L329.932,741.192z"/>
			</g>
		</g>
		<g>
			<g>
				<path d="M341.181,758.879c-21.962,2.04-44.63,5.449-64.262,16.091c-2.501,1.356-0.275,5.165,2.226,3.809
					c18.908-10.25,40.887-13.524,62.036-15.489C343.989,763.029,344.014,758.616,341.181,758.879L341.181,758.879z"/>
			</g>
		</g>
		<g>
			<g>
				<path d="M341.181,782.549c-16.846,2.183-33.439,5.858-49.914,9.946c-2.76,0.685-1.589,4.939,1.173,4.254
					c16.081-3.991,32.296-7.658,48.741-9.789C343.961,786.6,343.996,782.185,341.181,782.549L341.181,782.549z"/>
			</g>
		</g>
		<g>
			<g>
				<path d="M355.002,798.347c-23.936,0.13-50.747,5.284-70.183,20.036c-2.235,1.696-0.041,5.53,2.226,3.809
					c18.856-14.311,44.733-19.307,67.957-19.433C357.846,802.743,357.848,798.332,355.002,798.347L355.002,798.347z"/>
			</g>
		</g>
		<g>
			<g>
				<path d="M355.002,822.027c-23.301,0.25-45.95,9.944-64.262,23.972c-2.225,1.705-0.032,5.539,2.226,3.809
					c17.713-13.569,39.469-23.127,62.035-23.37C357.845,826.408,357.848,821.997,355.002,822.027L355.002,822.027z"/>
			</g>
		</g>
		<g>
			<g>
				<path d="M372.164,833.941c-23.022,4.312-46.023,12.976-65.634,25.87c-2.366,1.555-0.158,5.377,2.226,3.809
					c19.336-12.713,41.88-21.174,64.58-25.425C376.131,837.672,374.944,833.421,372.164,833.941L372.164,833.941z"/>
			</g>
		</g>
		<g>
			<g>
				<path d="M380.659,857.551c-11.037,0.24-21.882,5.929-31.419,10.963c-11.464,6.051-22.454,13.161-32.842,20.908
					c-2.252,1.679-0.057,5.511,2.226,3.809c9.639-7.188,19.791-13.703,30.305-19.534c9.445-5.238,20.646-11.494,31.73-11.735
					C383.499,861.9,383.505,857.489,380.659,857.551L380.659,857.551z"/>
			</g>
		</g>
		<g>
			<g>
				<path d="M405.72,869.456c-26.75,8.484-48.653,26.497-70.044,43.991c-2.203,1.802,0.937,4.904,3.119,3.119
					c20.779-16.992,42.109-34.614,68.098-42.856C409.594,872.853,408.439,868.593,405.72,869.456L405.72,869.456z"/>
			</g>
		</g>
		<g>
			<g>
				<path d="M419.005,885.468c-18.957,10.823-32.783,28.395-49.774,41.79c-2.233,1.76,0.912,4.86,3.119,3.119
					c16.689-13.158,30.269-30.474,48.881-41.101C423.701,887.867,421.48,884.055,419.005,885.468L419.005,885.468z"/>
			</g>
		</g>
		<g>
			<g>
				<path d="M426.895,907.179c-20.754,14.762-36.94,34.726-53.709,53.643c-1.88,2.12,1.229,5.252,3.119,3.119
					c16.49-18.603,32.405-38.435,52.816-52.953C431.419,909.354,429.219,905.526,426.895,907.179L426.895,907.179z"/>
			</g>
		</g>
		<g>
			<g>
				<path d="M447.824,911.915c-12.424,18.487-27.358,35.313-37.492,55.276c-1.284,2.53,2.521,4.763,3.809,2.226
					c10.134-19.963,25.068-36.79,37.492-55.276C453.225,911.773,449.402,909.568,447.824,911.915L447.824,911.915z"/>
			</g>
		</g>
		<g>
			<g>
				<path d="M467.542,927.705c-12.287,16.694-19.269,36.591-31.562,53.281c-1.69,2.294,2.141,4.49,3.809,2.226
					c12.292-16.69,19.275-36.587,31.562-53.281C473.039,927.636,469.208,925.44,467.542,927.705L467.542,927.705z"/>
			</g>
		</g>
		<g>
			<g>
				<path d="M491.23,939.567c-7.727,17.525-13.907,35.626-19.957,53.781c-0.902,2.706,3.359,3.857,4.254,1.173
					c5.928-17.789,11.941-35.555,19.512-52.728C496.175,939.216,492.375,936.969,491.23,939.567L491.23,939.567z"/>
			</g>
		</g>
		<g>
			<g>
				<path d="M518.632,944.021c-4.213,18.717-9.811,37.162-17.543,54.74c-1.134,2.578,2.666,4.825,3.809,2.226
					c7.892-17.941,13.687-36.686,17.988-55.794C523.509,942.423,519.256,941.246,518.632,944.021L518.632,944.021z"/>
			</g>
		</g>
		<g>
			<g>
				<path d="M548.155,960.396c-0.15,16.247-4.403,31.707-11.534,46.246c-1.247,2.544,2.556,4.78,3.809,2.226
					c7.471-15.234,11.979-31.446,12.136-48.473C552.592,957.55,548.181,957.553,548.155,960.396L548.155,960.396z"/>
			</g>
		</g>
		<g>
			<g>
				<path d="M569.945,964.937c3.904,16.602,1.606,33.695-1.977,50.14c-0.604,2.773,3.648,3.952,4.254,1.173
					c3.755-17.233,6.066-35.094,1.977-52.485C573.547,960.996,569.294,962.17,569.945,964.937L569.945,964.937z"/>
			</g>
		</g>
		<g>
			<g>
				<path d="M597.49,966.309c0,17.761,0,35.521,0,53.282c0,2.845,4.411,2.845,4.411,0c0-17.761,0-35.521,0-53.282
					C601.901,963.464,597.49,963.464,597.49,966.309L597.49,966.309z"/>
			</g>
		</g>
		<g>
			<g>
				<path d="M634.982,968.304c0.085,14.561,2.132,28.985,3.954,43.405c0.352,2.783,4.767,2.817,4.411,0
					c-1.821-14.42-3.868-28.844-3.954-43.405C639.377,965.461,634.966,965.459,634.982,968.304L634.982,968.304z"/>
			</g>
		</g>
		<g>
			<g>
				<path d="M660.718,964.937c3.976,14.584,3.864,29.785,3.866,44.786c0,2.845,4.411,2.845,4.411,0
					c-0.002-15.391,0.055-30.998-4.023-45.959C664.224,961.023,659.968,962.188,660.718,964.937L660.718,964.937z"/>
			</g>
		</g>
		<g>
			<g>
				<path d="M613.279,972.231c0,13.815,0,27.63,0,41.446c0,2.845,4.411,2.845,4.411,0c0-13.815,0-27.63,0-41.446
					C617.69,969.387,613.279,969.387,613.279,972.231L613.279,972.231z"/>
			</g>
		</g>
		<g>
			<g>
				<path d="M682.651,961.509c8.658,13.42,11.962,29.494,19.725,43.405c1.386,2.484,5.196,0.26,3.809-2.226
					c-7.763-13.91-11.062-29.977-19.725-43.405C684.924,956.902,681.104,959.111,682.651,961.509L682.651,961.509z"/>
			</g>
		</g>
		<g>
			<g>
				<path d="M702.377,953.628c8.005,13.878,17.346,27.198,21.498,42.878c0.728,2.747,4.983,1.581,4.254-1.173
					c-4.252-16.058-13.743-29.717-21.943-43.932C704.765,948.939,700.953,951.16,702.377,953.628L702.377,953.628z"/>
			</g>
		</g>
		<g>
			<g>
				<path d="M730.01,939.807c10.365,14.498,21.247,29.189,25.434,46.832c0.657,2.767,4.91,1.593,4.253-1.173
					c-4.277-18.02-15.288-33.072-25.879-47.886C732.18,935.289,728.352,937.488,730.01,939.807L730.01,939.807z"/>
			</g>
		</g>
		<g>
			<g>
				<path d="M752.057,926.423c12.469,12.753,21.052,28.705,33.538,41.446c1.993,2.034,5.111-1.087,3.119-3.119
					c-12.484-12.739-21.067-28.691-33.538-41.446C753.185,921.267,750.068,924.389,752.057,926.423L752.057,926.423z"/>
			</g>
		</g>
		<g>
			<g>
				<path d="M763.547,904.274c13.102,17.243,29.472,31.598,43.759,47.805c1.885,2.138,4.992-0.994,3.119-3.119
					c-14.028-15.913-30.206-29.984-43.069-46.912C765.659,899.815,761.825,902.008,763.547,904.274L763.547,904.274z"/>
			</g>
		</g>
		<g>
			<g>
				<path d="M782.115,891.254c14.902,10.663,29.448,22.038,40.627,36.718c1.699,2.231,5.533,0.038,3.809-2.226
					c-11.67-15.325-26.648-27.166-42.209-38.301C782.022,885.786,779.823,889.614,782.115,891.254L782.115,891.254z"/>
			</g>
		</g>
		<g>
			<g>
				<path d="M803.798,871.519c17.735,9.991,33.15,23.319,49.345,35.523c2.274,1.713,4.468-2.12,2.226-3.809
					c-16.196-12.204-31.609-25.532-49.345-35.523C803.543,866.312,801.321,870.123,803.798,871.519L803.798,871.519z"/>
			</g>
		</g>
		<g>
			<g>
				<path d="M815.652,849.808c17.756,11.851,35.52,23.689,53.281,35.533c2.374,1.583,4.58-2.239,2.226-3.809
					c-17.76-11.844-35.525-23.682-53.281-35.533C815.505,844.415,813.299,848.237,815.652,849.808L815.652,849.808z"/>
			</g>
		</g>
		<g>
			<g>
				<path d="M827.487,832.06c17.613,11.527,38.659,17.406,54.802,31.216c2.149,1.838,5.284-1.267,3.119-3.119
					c-16.476-14.094-37.734-20.151-55.695-31.905C827.326,826.688,825.118,830.509,827.487,832.06L827.487,832.06z"/>
			</g>
		</g>
		<g>
			<g>
				<path d="M498.08,331.001c18.442-30.886,53.397-43.754,88.045-43.889c34.459-0.134,71.422,11.624,96.706,35.645
					c7.491,7.117,18.848-4.204,11.338-11.338c-54.847-52.108-167.211-60.064-209.935,11.489
					C478.92,331.809,492.786,339.868,498.08,331.001L498.08,331.001z"/>
			</g>
		</g>
	</g>
	<g>
		<g>
			<path d="M381.301,953.26c2.484,13.906,4.026,28.311,1.571,42.336c-2.006,11.456-7.129,20.341-13.844,29.556
				c-5.004,6.868-10.372,13.774-12.757,22.072c-2.539,8.831,0.852,17.625,7.777,23.375c9.515,7.902,23.069,12.353,35.256,13.464
				c9.451,0.861,17.54-3.414,22.895-10.999c4.895-6.933,6.663-16.167,9.353-24.083c2.743-8.07,4.701-16.889,8.451-23.597
				c4.553-8.145,14.169-14.715,22.3-20.546c3.544-2.542,5.241-6.933,2.876-10.969c-2.054-3.506-7.411-5.428-10.969-2.876
				c-8.447,6.058-17.488,12.206-23.981,20.454c-5.305,6.739-8.224,14.497-10.771,22.616c-2.777,8.853-5.304,17.905-8.701,26.546
				c-0.916,2.33-2.555,4.76-4.331,6.336c1.085-0.963-0.939,0.461-1.019,0.505c1.202-0.661-1.176,0.353-1.238,0.371
				c-1.389,0.392-3.885,0.297-6.037,0.101c-8.299-0.756-22.481-5.687-26.391-12.707c0.669,1.201-0.235-0.875-0.279-1.045
				c0.407,1.563-0.015-0.583-0.018-0.908c-0.024-2.342-0.369,1.377,0.098-0.984c0.161-0.811,0.426-1.6,0.684-2.384
				c0.287-0.873,1.023-2.284,1.865-3.795c1.136-2.04,2.452-3.979,3.773-5.901c5.195-7.555,11.373-14.62,15.089-23.08
				c6.055-13.785,7.734-28.824,6.945-43.756c-0.431-8.17-1.695-16.319-3.132-24.364C394.947,938.829,379.495,943.151,381.301,953.26
				L381.301,953.26z"/>
		</g>
	</g>
	<g>
		<g>
			<path d="M750.059,1001.714c8.203,6.921,15.107,14.208,19.458,24.106c3.9,8.872,6.185,18.453,10.42,27.264
				c3.499,7.28,6.814,15.109,12.972,20.603c7.872,7.024,17.766,6.572,26.693,1.854c9.864-5.214,18.627-14.68,22.12-25.322
				c2.888-8.801,1.232-18.687-1.433-27.303c-5.721-18.497-18.316-35.495-20.027-55.144c-0.376-4.321,0.007-8.453,1.184-12.615
				c2.82-9.97-12.652-14.196-15.462-4.263c-5.773,20.406,3.43,40.271,11.671,58.548c6.324,14.025,15.649,31.966,3.487,44.547
				c-3.572,3.695-7.854,7.576-12.889,9.042c-2.162,0.629-3.302-0.055-4.631-1.24c-4.532-4.044-8.234-12.484-10.81-18.747
				c-3.692-8.975-6.245-18.366-10.295-27.199c-4.659-10.161-12.685-18.352-21.12-25.469
				C753.548,983.753,742.145,995.037,750.059,1001.714L750.059,1001.714z"/>
		</g>
	</g>
	<g>
		<g>
			<path d="M415.972,994.21c7.051,4.514,14.973,7.522,22.454,11.227c2.54,1.258,4.776-2.546,2.226-3.809
				c-7.481-3.705-15.403-6.713-22.454-11.227C415.795,988.862,413.585,992.682,415.972,994.21L415.972,994.21z"/>
		</g>
	</g>
	<g>
		<g>
			<path d="M412.233,1005.437c9.444,5.5,19.785,9.206,30.469,11.432c2.776,0.578,3.957-3.673,1.173-4.254
				c-10.327-2.152-20.282-5.668-29.415-10.987C411.996,1000.194,409.777,1004.007,412.233,1005.437L412.233,1005.437z"/>
		</g>
	</g>
	<g>
		<g>
			<path d="M399.672,1016.869c12.588,1.969,23.58,7.376,32.708,16.286c2.036,1.987,5.157-1.13,3.119-3.119
				c-9.629-9.399-21.35-15.339-34.655-17.421C398.063,1012.18,396.869,1016.43,399.672,1016.869L399.672,1016.869z"/>
		</g>
	</g>
	<g>
		<g>
			<path d="M390.893,1031.932c11.983,0.072,23.18,1.99,32.13,10.563c2.053,1.967,5.177-1.148,3.119-3.119
				c-9.793-9.381-22.081-11.776-35.249-11.855C388.048,1027.504,388.049,1031.915,390.893,1031.932L390.893,1031.932z"/>
		</g>
	</g>
	<g>
		<g>
			<path d="M385.292,1046.898c10.262,0.211,20.034,3.921,28.811,9.056c2.46,1.44,4.679-2.374,2.226-3.809
				c-9.445-5.526-20.004-9.431-31.037-9.659C382.446,1042.428,382.452,1046.839,385.292,1046.898L385.292,1046.898z"/>
		</g>
	</g>
	<g>
		<g>
			<path d="M381.545,1063.725c13.391,1.309,26.621,2.027,39.857,4.627c2.778,0.546,3.962-3.705,1.173-4.254
				c-13.626-2.677-27.242-3.437-41.03-4.785C378.714,1059.037,378.74,1063.451,381.545,1063.725L381.545,1063.725z"/>
		</g>
	</g>
	<g>
		<g>
			<path d="M788.634,990.453c7.261-5.316,14.966-9.088,23.797-10.978c2.781-0.595,1.601-4.847-1.173-4.254
				c-9.179,1.964-17.295,5.891-24.851,11.423C784.138,988.306,786.335,992.137,788.634,990.453L788.634,990.453z"/>
		</g>
	</g>
	<g>
		<g>
			<path d="M788.634,1003.55c7.865-3.741,16.46-5.578,24.324-9.34c2.565-1.227,0.326-5.03-2.226-3.809
				c-7.857,3.758-16.453,5.596-24.324,9.34C783.84,1000.963,786.08,1004.765,788.634,1003.55L788.634,1003.55z"/>
		</g>
	</g>
	<g>
		<g>
			<path d="M793.735,1014.999c10.315-4.082,20.837-7.696,30.451-13.319c2.453-1.435,0.234-5.248-2.226-3.809
				c-9.288,5.433-19.431,8.931-29.397,12.874C789.95,1011.78,791.087,1016.047,793.735,1014.999L793.735,1014.999z"/>
		</g>
	</g>
	<g>
		<g>
			<path d="M796.578,1033.155c6.493-6.197,15.624-10.305,24.625-10.581c2.838-0.087,2.846-4.498,0-4.411
				c-10.174,0.312-20.399,4.863-27.744,11.873C791.398,1032.003,794.521,1035.118,796.578,1033.155L796.578,1033.155z"/>
		</g>
	</g>
	<g>
		<g>
			<path d="M803.074,1044.949c8.452-2.101,16.949-3.943,24.851-7.719c2.566-1.226,0.326-5.029-2.226-3.809
				c-7.534,3.601-15.741,5.272-23.797,7.275C799.142,1041.382,800.313,1045.636,803.074,1044.949L803.074,1044.949z"/>
		</g>
	</g>
	<g>
		<g>
			<path d="M809.228,1059.693c4.271-2.084,8.822-3.527,13.088-5.627c2.552-1.257,0.316-5.061-2.226-3.809
				c-4.264,2.099-8.815,3.543-13.088,5.627C804.445,1057.132,806.683,1060.936,809.228,1059.693L809.228,1059.693z"/>
		</g>
	</g>
	<g>
		<g>
			<path d="M182.038,458.585c23.802-4.731,48.073-7.907,72.369-7.997c10.338-0.039,10.342-16.074,0-16.035
				c-25.69,0.096-51.465,3.568-76.632,8.57C167.638,445.138,171.94,460.592,182.038,458.585L182.038,458.585z"/>
		</g>
	</g>
	<g>
		<g>
			<path d="M165.479,322.001c19.777-3.726,39.42,1.025,57.821,8.275c4.072,1.604,8.797-1.725,9.862-5.6
				c1.253-4.554-1.537-8.262-5.6-9.862c-21.289-8.387-43.628-12.555-66.347-8.275C151.063,308.452,155.375,323.905,165.479,322.001
				L165.479,322.001z"/>
		</g>
	</g>
	<g>
		<g>
			<path d="M276.451,148.624c13.398,22.327,26.962,44.537,41.392,66.217c5.699,8.562,19.593,0.543,13.846-8.093
				c-14.429-21.681-27.994-43.89-41.392-66.217C284.984,131.677,271.117,139.734,276.451,148.624L276.451,148.624z"/>
		</g>
	</g>
	<g>
		<g>
			<path d="M432.108,210.795c0.001-20.051,0.025-40.196,3.864-59.953c1.963-10.101-13.491-14.407-15.462-4.263
				c-4.12,21.205-4.436,42.69-4.437,64.216C416.072,221.135,432.107,221.135,432.108,210.795L432.108,210.795z"/>
		</g>
	</g>
	<g>
		<g>
			<path d="M506.322,233.626c3.586-17.777,7.698-35.54,15.759-51.893c4.555-9.239-9.274-17.368-13.846-8.093
				c-8.712,17.672-13.497,36.498-17.376,55.724C488.823,239.458,504.278,243.758,506.322,233.626L506.322,233.626z"/>
		</g>
	</g>
	<g>
		<g>
			<path d="M655.962,205.3c9.009,4.749,16.09,12.316,23.21,19.447c7.313,7.324,18.65-4.015,11.338-11.338
				c-8.048-8.06-16.275-16.588-26.456-21.954C654.916,186.637,646.812,200.477,655.962,205.3L655.962,205.3z"/>
		</g>
	</g>
	<g>
		<g>
			<path d="M779.776,177.686c0.001-17.238-0.2-34.817,3.856-51.677c2.418-10.05-13.044-14.314-15.462-4.263
				c-4.395,18.268-4.427,37.26-4.429,55.94C763.741,188.026,779.775,188.026,779.776,177.686L779.776,177.686z"/>
		</g>
	</g>
	<g>
		<g>
			<path d="M899.533,225.342c8.57-21.208,21.502-39.939,39.312-54.404c3.397-2.759,2.85-8.488,0-11.338
				c-3.327-3.327-7.949-2.752-11.338,0c-20.037,16.273-33.841,37.734-43.436,61.48c-1.64,4.059,1.752,8.804,5.6,9.862
				C894.253,232.202,897.897,229.391,899.533,225.342L899.533,225.342z"/>
		</g>
	</g>
	<g>
		<g>
			<path d="M918.767,305.442c38.78-12.707,80.215-12.855,120.017-20.691c10.141-1.996,5.836-17.45-4.263-15.462
				c-39.806,7.837-81.228,7.98-120.017,20.691C904.724,293.185,908.912,308.671,918.767,305.442L918.767,305.442z"/>
		</g>
	</g>
	<g>
		<g>
			<path d="M937.318,388.504c28.972,0,57.945,0,86.917,0c10.34,0,10.34-16.035,0-16.035c-28.972,0-57.945,0-86.917,0
				C926.977,372.469,926.977,388.504,937.318,388.504L937.318,388.504z"/>
		</g>
	</g>
	<g>
		<g>
			<path d="M918.628,483.419c9.97,1.764,19.138,5.454,26.548,12.497c7.672,7.292,11.576,17.175,13.396,27.419
				c0.765,4.307,5.949,6.676,9.862,5.6c4.502-1.238,6.363-5.564,5.6-9.862c-4.744-26.701-24.436-46.39-51.143-51.115
				c-4.299-0.761-8.623,1.095-9.862,5.6C911.952,477.468,914.32,482.657,918.628,483.419L918.628,483.419z"/>
		</g>
	</g>
</g>
</svg>
